<mxfile host="app.diagrams.net" modified="2023-05-26T19:33:19.196Z" agent="Mozilla/5.0 (Windows NT 10.0; Win64; x64; rv:109.0) Gecko/20100101 Firefox/113.0" etag="EpsfirZETm6f_JBFAMU7" version="21.3.2">
  <diagram name="Страница 1" id="dQDeROiv-mRfGGCN9qfB">
    <mxGraphModel dx="939" dy="594" grid="1" gridSize="10" guides="1" tooltips="1" connect="1" arrows="1" fold="1" page="0" pageScale="1" pageWidth="827" pageHeight="1169" math="0" shadow="0">
      <root>
        <mxCell id="0" />
        <mxCell id="1" parent="0" />
        <mxCell id="bljY8zBb96DphCMaAA2j-18" style="edgeStyle=orthogonalEdgeStyle;rounded=0;orthogonalLoop=1;jettySize=auto;html=1;endArrow=none;" parent="1" source="bljY8zBb96DphCMaAA2j-2" target="bljY8zBb96DphCMaAA2j-5" edge="1">
          <mxGeometry relative="1" as="geometry" />
        </mxCell>
        <mxCell id="bljY8zBb96DphCMaAA2j-2" value="Начало" style="rounded=1;whiteSpace=wrap;html=1;arcSize=50;" parent="1" vertex="1">
          <mxGeometry x="160" y="120" width="120" height="40" as="geometry" />
        </mxCell>
        <mxCell id="bljY8zBb96DphCMaAA2j-19" style="edgeStyle=orthogonalEdgeStyle;rounded=0;orthogonalLoop=1;jettySize=auto;html=1;endArrow=none;" parent="1" source="bljY8zBb96DphCMaAA2j-5" target="bljY8zBb96DphCMaAA2j-11" edge="1">
          <mxGeometry relative="1" as="geometry" />
        </mxCell>
        <mxCell id="bljY8zBb96DphCMaAA2j-5" value="Для каждой последовательности s1 из cur_freq_seqs" style="strokeWidth=1;html=1;shape=stencil(rZVNb4MwDIZ/Ta5VIFoFxynrTlUvPeycUndEhQQF2q7/vikuGh+DMa8SB/wa3gcbW2FClqkqgIXcqByYeGNhuLa28MJa57ryob9NMbHkGF4wjCMMVVlAUqF2Vk6rXQaYKStnj3DR++rhoE0KDl3FivFX/8z9EjKxxngTbU3ZybTy3kxp49/lX2jGFy+IuT5ijApPyKEC11G/y9ugwMJ3MimYR9oSSN2KGu5vpI+/kwIaaUXpXp8VzIRtCHXxBQ97uDiayduSeDG1OlIvm60jVDfCE9IrYwso5E4lx09nT2b/41cW6r7cg0STzu0ZWkPXm++pBjQOmTYthyj+r0OvgU+wWBIs+JMdKGVQ/kaS2RImhtbrg4mo1ZExEvJgHUzM10FnGZ4jY6M7MKhVPNdq4QY=);whiteSpace=wrap;" parent="1" vertex="1">
          <mxGeometry x="140" y="180" width="160" height="50" as="geometry" />
        </mxCell>
        <mxCell id="bljY8zBb96DphCMaAA2j-30" style="edgeStyle=orthogonalEdgeStyle;rounded=0;orthogonalLoop=1;jettySize=auto;html=1;endArrow=none;" parent="1" source="bljY8zBb96DphCMaAA2j-6" target="bljY8zBb96DphCMaAA2j-12" edge="1">
          <mxGeometry relative="1" as="geometry" />
        </mxCell>
        <mxCell id="bljY8zBb96DphCMaAA2j-6" value="Конец цикла для каждой последовательности s1" style="strokeWidth=1;html=1;shape=stencil(rZVNb4MwDIZ/Ta5VIFoFxynrTlUvPeycUndEhQQF2q7/vikuGh+DMa8SB/wa3gcbW2FClqkqgIXcqByYeGNhuLa28MJa57ryob9NMbHkGF4wjCMMVVlAUqF2Vk6rXQaYKStnj3DR++rhoE0KDl3FivFX/8z9EjKxxngTbU3ZybTy3kxp49/lX2jGFy+IuT5ijApPyKEC11G/y9ugwMJ3MimYR9oSSN2KGu5vpI+/kwIaaUXpXp8VzIRtCHXxBQ97uDiayduSeDG1OlIvm60jVDfCE9IrYwso5E4lx09nT2b/41cW6r7cg0STzu0ZWkPXm++pBjQOmTYthyj+r0OvgU+wWBIs+JMdKGVQ/kaS2RImhtbrg4mo1ZExEvJgHUzM10FnGZ4jY6M7MKhVPNdq4QY=);whiteSpace=wrap;direction=west;" parent="1" vertex="1">
          <mxGeometry x="530" y="250" width="160" height="50" as="geometry" />
        </mxCell>
        <mxCell id="88X7L_1Gqrcv3JaSEezl-3" style="edgeStyle=orthogonalEdgeStyle;rounded=0;orthogonalLoop=1;jettySize=auto;html=1;endArrow=none;" parent="1" source="bljY8zBb96DphCMaAA2j-9" target="bljY8zBb96DphCMaAA2j-6" edge="1">
          <mxGeometry relative="1" as="geometry" />
        </mxCell>
        <mxCell id="bljY8zBb96DphCMaAA2j-9" value="Добавить кандидата равного s1 с добавлением последней команды s2" style="rounded=0;whiteSpace=wrap;html=1;" parent="1" vertex="1">
          <mxGeometry x="530" y="160" width="160" height="50" as="geometry" />
        </mxCell>
        <mxCell id="hi4K05SOt2v-Cyp7nUVl-5" value="&lt;div&gt;Да&lt;/div&gt;" style="edgeStyle=orthogonalEdgeStyle;rounded=0;orthogonalLoop=1;jettySize=auto;html=1;exitX=1;exitY=0.5;exitDx=0;exitDy=0;entryX=0.5;entryY=0;entryDx=0;entryDy=0;" edge="1" parent="1" source="bljY8zBb96DphCMaAA2j-10" target="hi4K05SOt2v-Cyp7nUVl-1">
          <mxGeometry x="-0.5" y="10" relative="1" as="geometry">
            <mxPoint as="offset" />
          </mxGeometry>
        </mxCell>
        <mxCell id="hi4K05SOt2v-Cyp7nUVl-18" style="edgeStyle=orthogonalEdgeStyle;rounded=0;orthogonalLoop=1;jettySize=auto;html=1;exitX=0;exitY=0.5;exitDx=0;exitDy=0;entryX=0.5;entryY=0;entryDx=0;entryDy=0;" edge="1" parent="1" source="bljY8zBb96DphCMaAA2j-10" target="hi4K05SOt2v-Cyp7nUVl-2">
          <mxGeometry relative="1" as="geometry" />
        </mxCell>
        <mxCell id="bljY8zBb96DphCMaAA2j-10" value="&lt;div&gt;s1 без первой&lt;/div&gt;&lt;div&gt;команды равна&lt;/div&gt;&lt;div&gt;s2 без последней&lt;br&gt;команды?&lt;/div&gt;" style="rhombus;whiteSpace=wrap;html=1;" parent="1" vertex="1">
          <mxGeometry x="140" y="320" width="160" height="100" as="geometry" />
        </mxCell>
        <mxCell id="bljY8zBb96DphCMaAA2j-20" style="edgeStyle=orthogonalEdgeStyle;rounded=0;orthogonalLoop=1;jettySize=auto;html=1;endArrow=none;" parent="1" source="bljY8zBb96DphCMaAA2j-11" target="bljY8zBb96DphCMaAA2j-10" edge="1">
          <mxGeometry relative="1" as="geometry" />
        </mxCell>
        <mxCell id="bljY8zBb96DphCMaAA2j-11" value="Для каждой последовательности s2 из cur_freq_seqs" style="strokeWidth=1;html=1;shape=stencil(rZVNb4MwDIZ/Ta5VIFoFxynrTlUvPeycUndEhQQF2q7/vikuGh+DMa8SB/wa3gcbW2FClqkqgIXcqByYeGNhuLa28MJa57ryob9NMbHkGF4wjCMMVVlAUqF2Vk6rXQaYKStnj3DR++rhoE0KDl3FivFX/8z9EjKxxngTbU3ZybTy3kxp49/lX2jGFy+IuT5ijApPyKEC11G/y9ugwMJ3MimYR9oSSN2KGu5vpI+/kwIaaUXpXp8VzIRtCHXxBQ97uDiayduSeDG1OlIvm60jVDfCE9IrYwso5E4lx09nT2b/41cW6r7cg0STzu0ZWkPXm++pBjQOmTYthyj+r0OvgU+wWBIs+JMdKGVQ/kaS2RImhtbrg4mo1ZExEvJgHUzM10FnGZ4jY6M7MKhVPNdq4QY=);whiteSpace=wrap;" parent="1" vertex="1">
          <mxGeometry x="140" y="250" width="160" height="50" as="geometry" />
        </mxCell>
        <mxCell id="bljY8zBb96DphCMaAA2j-31" style="edgeStyle=orthogonalEdgeStyle;rounded=0;orthogonalLoop=1;jettySize=auto;html=1;endArrow=none;" parent="1" source="bljY8zBb96DphCMaAA2j-12" target="bljY8zBb96DphCMaAA2j-15" edge="1">
          <mxGeometry relative="1" as="geometry" />
        </mxCell>
        <mxCell id="bljY8zBb96DphCMaAA2j-12" value="Конец цикла для каждой последовательности s2" style="strokeWidth=1;html=1;shape=stencil(rZVNb4MwDIZ/Ta5VIFoFxynrTlUvPeycUndEhQQF2q7/vikuGh+DMa8SB/wa3gcbW2FClqkqgIXcqByYeGNhuLa28MJa57ryob9NMbHkGF4wjCMMVVlAUqF2Vk6rXQaYKStnj3DR++rhoE0KDl3FivFX/8z9EjKxxngTbU3ZybTy3kxp49/lX2jGFy+IuT5ijApPyKEC11G/y9ugwMJ3MimYR9oSSN2KGu5vpI+/kwIaaUXpXp8VzIRtCHXxBQ97uDiayduSeDG1OlIvm60jVDfCE9IrYwso5E4lx09nT2b/41cW6r7cg0STzu0ZWkPXm++pBjQOmTYthyj+r0OvgU+wWBIs+JMdKGVQ/kaS2RImhtbrg4mo1ZExEvJgHUzM10FnGZ4jY6M7MKhVPNdq4QY=);whiteSpace=wrap;direction=west;" parent="1" vertex="1">
          <mxGeometry x="530" y="320" width="160" height="50" as="geometry" />
        </mxCell>
        <mxCell id="bljY8zBb96DphCMaAA2j-15" value="Конец" style="rounded=1;whiteSpace=wrap;html=1;arcSize=50;" parent="1" vertex="1">
          <mxGeometry x="550" y="390" width="120" height="40" as="geometry" />
        </mxCell>
        <mxCell id="bljY8zBb96DphCMaAA2j-32" value="&lt;div&gt;Входные данные:&lt;/div&gt;&lt;div&gt;cur_freq_seqs - текущие ЧВП&lt;br&gt;&lt;/div&gt;" style="strokeWidth=1;html=1;shape=mxgraph.flowchart.annotation_1;align=left;pointerEvents=1;" parent="1" vertex="1">
          <mxGeometry x="320" y="110" width="50" height="60" as="geometry" />
        </mxCell>
        <mxCell id="bljY8zBb96DphCMaAA2j-33" value="" style="endArrow=none;dashed=1;html=1;exitX=0;exitY=0.5;exitDx=0;exitDy=0;exitPerimeter=0;" parent="1" source="bljY8zBb96DphCMaAA2j-32" target="bljY8zBb96DphCMaAA2j-2" edge="1">
          <mxGeometry width="50" height="50" relative="1" as="geometry">
            <mxPoint x="354" y="-200" as="sourcePoint" />
            <mxPoint x="320" y="170" as="targetPoint" />
          </mxGeometry>
        </mxCell>
        <mxCell id="W-1J5PYflbQIXq2F-WXP-4" value="&lt;div&gt;Выходные данные:&lt;/div&gt;&lt;div&gt;candidates - кандидаты&lt;br&gt;&lt;/div&gt;" style="strokeWidth=1;html=1;shape=mxgraph.flowchart.annotation_1;align=left;pointerEvents=1;" parent="1" vertex="1">
          <mxGeometry x="710" y="380" width="50" height="60" as="geometry" />
        </mxCell>
        <mxCell id="W-1J5PYflbQIXq2F-WXP-5" value="" style="endArrow=none;dashed=1;html=1;exitX=0;exitY=0.5;exitDx=0;exitDy=0;exitPerimeter=0;entryX=1;entryY=0.5;entryDx=0;entryDy=0;" parent="1" source="W-1J5PYflbQIXq2F-WXP-4" target="bljY8zBb96DphCMaAA2j-15" edge="1">
          <mxGeometry width="50" height="50" relative="1" as="geometry">
            <mxPoint x="744" y="70" as="sourcePoint" />
            <mxPoint x="660" y="410" as="targetPoint" />
          </mxGeometry>
        </mxCell>
        <mxCell id="hi4K05SOt2v-Cyp7nUVl-1" value="ДА" style="ellipse;whiteSpace=wrap;html=1;aspect=fixed;" vertex="1" parent="1">
          <mxGeometry x="300" y="390" width="40" height="40" as="geometry" />
        </mxCell>
        <mxCell id="hi4K05SOt2v-Cyp7nUVl-2" value="НЕТ" style="ellipse;whiteSpace=wrap;html=1;aspect=fixed;" vertex="1" parent="1">
          <mxGeometry x="100" y="390" width="40" height="40" as="geometry" />
        </mxCell>
        <mxCell id="hi4K05SOt2v-Cyp7nUVl-8" style="edgeStyle=orthogonalEdgeStyle;rounded=0;orthogonalLoop=1;jettySize=auto;html=1;exitX=0.5;exitY=1;exitDx=0;exitDy=0;entryX=0.5;entryY=0;entryDx=0;entryDy=0;" edge="1" parent="1" source="hi4K05SOt2v-Cyp7nUVl-7" target="bljY8zBb96DphCMaAA2j-9">
          <mxGeometry relative="1" as="geometry" />
        </mxCell>
        <mxCell id="hi4K05SOt2v-Cyp7nUVl-7" value="ДА" style="ellipse;whiteSpace=wrap;html=1;aspect=fixed;" vertex="1" parent="1">
          <mxGeometry x="590" y="100" width="40" height="40" as="geometry" />
        </mxCell>
        <mxCell id="hi4K05SOt2v-Cyp7nUVl-17" style="edgeStyle=orthogonalEdgeStyle;rounded=0;orthogonalLoop=1;jettySize=auto;html=1;exitX=0.5;exitY=1;exitDx=0;exitDy=0;" edge="1" parent="1" source="hi4K05SOt2v-Cyp7nUVl-9">
          <mxGeometry relative="1" as="geometry">
            <mxPoint x="610" y="230" as="targetPoint" />
            <Array as="points">
              <mxPoint x="510" y="230" />
            </Array>
          </mxGeometry>
        </mxCell>
        <mxCell id="hi4K05SOt2v-Cyp7nUVl-9" value="НЕТ" style="ellipse;whiteSpace=wrap;html=1;aspect=fixed;" vertex="1" parent="1">
          <mxGeometry x="490" y="100" width="40" height="40" as="geometry" />
        </mxCell>
      </root>
    </mxGraphModel>
  </diagram>
</mxfile>
